<?xml version="1.0" standalone="no"?>
<!DOCTYPE svg PUBLIC "-//W3C//DTD SVG 20010904//EN"
 "http://www.w3.org/TR/2001/REC-SVG-20010904/DTD/svg10.dtd">
<svg version="1.0" xmlns="http://www.w3.org/2000/svg"
 width="512.000000pt" height="512.000000pt" viewBox="0 0 512.000000 512.000000"
 preserveAspectRatio="xMidYMid meet">

<g transform="translate(0.000000,512.000000) scale(0.100000,-0.100000)"
fill="#000000" stroke="none">
<path d="M1123 5010 c-41 -17 -56 -55 -61 -160 l-5 -98 -91 -4 c-71 -2 -102
-8 -140 -27 -65 -32 -122 -90 -152 -154 l-24 -52 0 -1886 c0 -2104 -6 -1935
71 -2023 52 -58 126 -95 212 -103 l67 -6 0 -51 c0 -119 52 -229 133 -284 90
-61 -22 -57 1597 -57 l1485 0 56 26 c65 31 119 82 151 142 l23 42 3 1859 2
1859 -23 51 c-51 110 -141 174 -261 183 l-63 6 -5 121 c-6 141 -27 203 -94
270 -58 58 -113 79 -220 84 l-92 4 -4 104 c-3 98 -5 106 -31 132 -39 39 -105
38 -144 -1 -26 -26 -28 -33 -31 -132 l-4 -105 -199 0 -199 0 0 105 c0 98 -2
108 -24 130 -32 32 -85 41 -124 21 -45 -23 -52 -43 -52 -155 l0 -101 -199 0
-199 0 -4 105 c-3 99 -5 106 -31 132 -22 22 -37 28 -72 28 -35 0 -50 -6 -72
-28 -26 -26 -28 -33 -31 -132 l-4 -105 -199 0 -199 0 0 103 c0 114 -8 136 -60
157 -24 10 -39 10 -70 1 -57 -17 -70 -48 -70 -166 l0 -95 -200 0 -200 0 0 95
c0 111 -13 147 -61 164 -37 13 -56 13 -86 1z m-61 -560 c3 -81 8 -105 24 -127
27 -36 81 -51 124 -33 47 20 60 55 60 165 l0 95 200 0 200 0 0 -94 c0 -52 4
-106 10 -120 13 -35 68 -60 113 -52 60 11 71 34 77 154 l5 107 197 3 196 2 4
-106 c3 -105 3 -106 36 -135 36 -33 77 -37 121 -14 39 19 51 60 51 167 l0 88
198 -2 197 -3 5 -107 c4 -95 8 -110 28 -130 17 -18 34 -23 73 -23 43 0 54 4
75 28 22 26 24 37 24 133 l0 104 200 0 200 0 0 -89 c0 -106 12 -147 51 -166
44 -23 85 -19 121 14 32 29 32 30 36 135 l4 106 58 0 c31 0 71 -5 89 -11 65
-23 61 118 61 -1919 l0 -1852 -29 -29 -29 -29 -1466 0 -1465 0 -28 24 -28 24
-3 1860 -2 1859 21 27 c29 36 52 45 125 45 l62 1 4 -100z m3121 -391 c26 -7
44 -21 57 -42 20 -31 20 -67 20 -1830 0 -1305 -3 -1804 -11 -1820 -6 -12 -21
-30 -33 -39 -20 -16 -113 -18 -1478 -18 l-1457 0 -27 24 c-24 20 -28 32 -32
89 l-4 67 1333 2 1334 3 52 24 c61 27 126 93 156 159 l22 47 3 1673 c2 1317 5
1672 15 1672 6 0 29 -5 50 -11z"/>
<path d="M1475 3676 c-55 -24 -75 -74 -51 -130 29 -70 -23 -67 966 -64 l890 3
27 28 c40 39 40 105 0 144 l-27 28 -888 2 c-716 2 -893 0 -917 -11z"/>
<path d="M1453 3135 c-27 -19 -46 -75 -37 -109 3 -14 20 -37 36 -51 l30 -25
889 0 c967 0 931 -2 957 55 7 14 12 35 12 46 0 28 -27 77 -49 89 -13 7 -321
10 -918 10 -783 0 -901 -2 -920 -15z"/>
<path d="M1458 2605 c-31 -17 -52 -71 -42 -109 3 -14 20 -37 36 -51 l30 -25
899 0 900 0 24 24 c43 43 45 99 6 147 l-19 24 -904 2 c-775 2 -907 0 -930 -12z"/>
<path d="M1475 2081 c-82 -34 -79 -159 5 -188 26 -9 257 -12 900 -12 804 -1
867 0 900 17 68 34 78 117 19 166 l-31 26 -886 -1 c-488 0 -896 -4 -907 -8z"/>
<path d="M1475 1546 c-55 -24 -75 -74 -51 -130 28 -67 18 -66 590 -66 378 0
522 3 541 12 75 34 70 160 -6 187 -49 17 -1034 14 -1074 -3z"/>
</g>
</svg>
